<svg width="96" height="96" viewBox="0 0 96 96" fill="none" xmlns="http://www.w3.org/2000/svg">
<path d="M44 72C36.2 72 29.5833 69.2833 24.15 63.85C18.7167 58.4167 16 51.8 16 44V20C16 17.8 16.7833 15.9167 18.35 14.35C19.9167 12.7833 21.8 12 24 12H74C77.8667 12 81.1667 13.3667 83.9 16.1C86.6333 18.8333 88 22.1333 88 26C88 29.8667 86.6333 33.1667 83.9 35.9C81.1667 38.6333 77.8667 40 74 40H72V44C72 51.8 69.2833 58.4167 63.85 63.85C58.4167 69.2833 51.8 72 44 72ZM24 32H64V20H24V32ZM44 64C49.5333 64 54.25 62.05 58.15 58.15C62.05 54.25 64 49.5333 64 44V40H24V44C24 49.5333 25.95 54.25 29.85 58.15C33.75 62.05 38.4667 64 44 64ZM72 32H74C75.6667 32 77.0833 31.4167 78.25 30.25C79.4167 29.0833 80 27.6667 80 26C80 24.3333 79.4167 22.9167 78.25 21.75C77.0833 20.5833 75.6667 20 74 20H72V32ZM16 84V76H80V84H16Z" fill="#E77637"/>
</svg>
