<svg width="54" height="53" viewBox="0 0 54 53" fill="none" xmlns="http://www.w3.org/2000/svg">
<g clip-path="url(#clip0_2_66)">
<path fill-rule="evenodd" clip-rule="evenodd" d="M26.9196 0C12.0337 0 0 12.1458 0 27.1719C0 39.183 7.71043 49.3502 18.4068 52.9487C19.7442 53.2192 20.234 52.364 20.234 51.6446C20.234 51.0147 20.1899 48.8555 20.1899 46.6058C12.7016 48.2256 11.1422 43.3667 11.1422 43.3667C9.93876 40.2176 8.15565 39.4083 8.15565 39.4083C5.70471 37.7437 8.33418 37.7437 8.33418 37.7437C11.0529 37.9237 12.4795 40.5329 12.4795 40.5329C14.8858 44.6713 18.7633 43.502 20.3233 42.782C20.5459 41.0275 21.2595 39.8129 22.0171 39.1383C16.0446 38.5084 9.76078 36.1692 9.76078 25.7321C9.76078 22.7629 10.8298 20.3338 12.5236 18.4446C12.2563 17.7699 11.3202 14.9802 12.7914 11.2465C12.7914 11.2465 15.0643 10.5266 20.1894 14.0356C22.3836 13.4408 24.6465 13.1383 26.9196 13.1357C29.1925 13.1357 31.5096 13.451 33.6492 14.0356C38.7748 10.5266 41.0477 11.2465 41.0477 11.2465C42.5189 14.9802 41.5822 17.7699 41.315 18.4446C43.0534 20.3338 44.0783 22.7629 44.0783 25.7321C44.0783 36.1692 37.7945 38.4631 31.7773 39.1383C32.7582 39.9929 33.6045 41.6122 33.6045 44.1766C33.6045 47.8204 33.5605 50.7447 33.5605 51.6441C33.5605 52.364 34.0509 53.2192 35.3876 52.9492C46.084 49.3496 53.7945 39.183 53.7945 27.1719C53.8386 12.1458 41.7607 0 26.9196 0Z" fill="white"/>
</g>
<defs>
<clipPath id="clip0_2_66">
<rect width="54" height="53" fill="white"/>
</clipPath>
</defs>
</svg>
